<svg width="8" height="4" viewBox="0 0 201 283" fill="none" xmlns="http://www.w3.org/2000/svg">
<path d="M4 73.1V146.2H24.9H45.8L51.4 137.9C57.9 128.2 70.9 115.1 79.4 109.7C95.5 99.4 131.9 86.8 151.3 84.7C157.5 84 158 83.8 159.4 80.7C165.8 67.2 165.2 47 157.8 32.2C153.4 23.4 141.7 11.8 133 7.50001C120.1 1.30001 117.2 1.00001 57.8 0.50001L4 1.00285e-05V73.1Z" fill="white"/>
<path d="M152.5 95.2C129.3 97.8 91.1 112.6 77.2 124.4C71.3 129.3 59 143.6 59 145.5C59 145.9 62.2 146.2 66.2 146L73.4 145.7L76 140.7C79.8 133.2 94 119.4 102.5 115C115.3 108.4 123.1 106.7 142 106.7C154.3 106.8 160.1 107.2 164.7 108.5C174.3 111 178.8 113.7 179.7 117.2L180.5 120.2L184.6 118.2C186.8 117.1 191.3 114 194.6 111.4C201.6 105.7 202.3 102.9 197.4 100C190.9 96.2 166.6 93.6 152.5 95.2Z" fill="white"/>
<path d="M130.9 117.2C118.4 118.6 107.1 123.4 97.7 131.2C92.8 135.2 86 143.6 86 145.5C86 145.9 104.9 146.2 128.1 146.2H170.1L169.5 143.9C169.1 142.7 168.2 140.7 167.4 139.5L166 137.2L160.7 139.3C151.3 143.1 150.7 143.3 150.2 142.8C150 142.5 152.1 139.3 155 135.7L160.3 129.1L156.9 125.6C148.8 117.2 144.2 115.7 130.9 117.2Z" fill="white"/>
<path d="M4 204.7V226.2H20.1C34.1 226.2 36.1 226 35.6 224.7C33.9 220.1 32.8 208.6 33.2 196.7L33.5 183.2H18.8H4V204.7Z" fill="white"/>
<path d="M44.4 184.4C44 185.1 43.6 191.9 43.6 199.6C43.6 216.4 45.1 223.5 51.5 236.7C64.7 263.9 92.5 280.3 128 281.8C139.5 282.3 141.2 282.2 149.5 279.7C161 276.3 172.6 270.9 182.3 264.3C186.5 261.5 190 259 190 258.8C190 258.6 187.1 259.3 183.6 260.2C163.4 265.9 138.1 267.1 123.5 263.3C108 259.2 93.1 250.5 84.1 240.5C78.3 234 70.8 219.9 68.4 210.7C67.6 207.4 66.6 199.9 66.3 193.9L65.7 183.2H55.4C48.5 183.2 44.9 183.6 44.4 184.4Z" fill="white"/>
<path d="M76.4 191.9C77.2 203.1 79.2 211.5 83 219.8L86 226.4L105.2 226C122.6 225.5 125.3 225.2 132.5 222.9C144.3 219 153.9 212 161.7 201.8C166.2 195.8 171 186.9 171 184.4C171 183.5 160.8 183.2 123.4 183.2H75.7L76.4 191.9Z" fill="white"/>
<path d="M9.18837 161.16V159.656H12.8044C13.551 159.656 14.223 159.528 14.8204 159.272C15.4177 159.016 15.887 158.643 16.2284 158.152C16.5697 157.661 16.7404 157.064 16.7404 156.36C16.7404 155.293 16.367 154.472 15.6204 153.896C14.8737 153.299 13.935 153 12.8044 153H9.76438V170.6H13.1244C14.0844 170.6 14.927 170.429 15.6524 170.088C16.399 169.747 16.975 169.256 17.3804 168.616C17.807 167.976 18.0204 167.197 18.0204 166.28C18.0204 165.597 17.903 164.989 17.6684 164.456C17.4337 163.923 17.0924 163.475 16.6444 163.112C16.2177 162.749 15.7057 162.483 15.1084 162.312C14.511 162.12 13.8497 162.024 13.1244 162.024H9.18837V160.52H13.1244C14.2124 160.52 15.215 160.637 16.1324 160.872C17.0497 161.107 17.8497 161.469 18.5324 161.96C19.2364 162.429 19.7804 163.037 20.1644 163.784C20.5484 164.531 20.7404 165.416 20.7404 166.44C20.7404 167.912 20.399 169.139 19.7164 170.12C19.055 171.08 18.1484 171.805 16.9964 172.296C15.8657 172.765 14.575 173 13.1244 173H7.04438V150.6H12.8044C14.1484 150.6 15.311 150.803 16.2924 151.208C17.295 151.613 18.0737 152.232 18.6284 153.064C19.183 153.875 19.4604 154.92 19.4604 156.2C19.4604 157.245 19.183 158.141 18.6284 158.888C18.0737 159.635 17.295 160.2 16.2924 160.584C15.311 160.968 14.1484 161.16 12.8044 161.16H9.18837ZM24.7281 150.6H27.4481V165.64C27.4481 167.176 27.8641 168.413 28.6961 169.352C29.5281 170.291 30.7441 170.76 32.3441 170.76C33.9441 170.76 35.1601 170.291 35.9921 169.352C36.8241 168.413 37.2401 167.176 37.2401 165.64V150.6H39.9601V165.64C39.9601 166.749 39.7788 167.773 39.4161 168.712C39.0748 169.651 38.5628 170.461 37.8801 171.144C37.2188 171.827 36.4188 172.36 35.4801 172.744C34.5415 173.128 33.4961 173.32 32.3441 173.32C31.1921 173.32 30.1468 173.128 29.2081 172.744C28.2695 172.36 27.4588 171.827 26.7761 171.144C26.1148 170.461 25.6028 169.651 25.2401 168.712C24.8988 167.773 24.7281 166.749 24.7281 165.64V150.6ZM44.9194 150.6H47.6394V170.44H56.4394V173H44.9194V150.6ZM59.3256 150.6H62.0456V173H59.3256V150.6ZM70.8456 150.6H74.2056L64.5096 161.096L74.6856 173H71.3256L61.2136 161.16L70.8456 150.6ZM88.6131 161.8C88.6131 163.528 88.9971 165.053 89.7651 166.376C90.5545 167.699 91.5785 168.733 92.8371 169.48C94.0958 170.227 95.4611 170.6 96.9331 170.6C97.9998 170.6 98.9705 170.461 99.8451 170.184C100.741 169.907 101.552 169.523 102.277 169.032C103.002 168.52 103.621 167.933 104.133 167.272V170.856C103.194 171.688 102.17 172.307 101.061 172.712C99.9518 173.117 98.5758 173.32 96.9331 173.32C95.3758 173.32 93.9145 173.043 92.5491 172.488C91.2051 171.912 90.0211 171.112 88.9971 170.088C87.9731 169.043 87.1731 167.816 86.5971 166.408C86.0211 165 85.7331 163.464 85.7331 161.8C85.7331 160.136 86.0211 158.6 86.5971 157.192C87.1731 155.784 87.9731 154.568 88.9971 153.544C90.0211 152.499 91.2051 151.699 92.5491 151.144C93.9145 150.568 95.3758 150.28 96.9331 150.28C98.5758 150.28 99.9518 150.483 101.061 150.888C102.17 151.293 103.194 151.912 104.133 152.744V156.328C103.621 155.667 103.002 155.091 102.277 154.6C101.552 154.088 100.741 153.693 99.8451 153.416C98.9705 153.139 97.9998 153 96.9331 153C95.4611 153 94.0958 153.373 92.8371 154.12C91.5785 154.867 90.5545 155.901 89.7651 157.224C88.9971 158.525 88.6131 160.051 88.6131 161.8ZM110.595 166.28L111.555 163.72H121.475L122.435 166.28H110.595ZM116.451 155.656L112.675 164.552L112.419 165.128L109.091 173H106.051L116.451 149.48L126.851 173H123.811L120.547 165.32L120.291 164.68L116.451 155.656ZM133.576 161.96H136.616L144.616 173H141.256L133.576 161.96ZM129.576 150.6H132.296V173H129.576V150.6ZM131.08 153V150.6H135.656C137.106 150.6 138.397 150.877 139.528 151.432C140.68 151.965 141.586 152.733 142.248 153.736C142.93 154.739 143.272 155.933 143.272 157.32C143.272 158.685 142.93 159.88 142.248 160.904C141.586 161.907 140.68 162.685 139.528 163.24C138.397 163.773 137.106 164.04 135.656 164.04H131.08V161.64H135.656C136.616 161.64 137.458 161.469 138.184 161.128C138.93 160.787 139.506 160.296 139.912 159.656C140.338 159.016 140.552 158.237 140.552 157.32C140.552 156.403 140.338 155.624 139.912 154.984C139.506 154.344 138.93 153.853 138.184 153.512C137.458 153.171 136.616 153 135.656 153H131.08ZM148.986 173V170.44H160.282V173H148.986ZM148.986 153.16V150.6H160.282V153.16H148.986ZM148.986 162.12V159.56H159.642V162.12H148.986ZM147.482 150.6H150.202V173H147.482V150.6Z" fill="white"/>
</svg>
