<svg width="8" height="8" viewBox="0 0 63 94" fill="none" xmlns="http://www.w3.org/2000/svg">
<path d="M1.25648 24.3632V48.7265H7.82162H14.3868L16.1458 45.9602C18.1876 42.7273 22.2712 38.3613 24.9412 36.5615C29.9986 33.1287 41.4326 28.9293 47.5266 28.2294C49.4741 27.9961 49.6312 27.9294 50.071 26.8962C52.0813 22.3969 51.8929 15.6645 49.5684 10.7318C48.1862 7.79891 44.511 3.93279 41.7781 2.49966C37.726 0.433281 36.815 0.333295 18.1562 0.166652L1.25648 8.3968e-06V24.3632Z" fill="#156B6B"/>
<path d="M47.9035 31.7289C40.6159 32.5954 28.6165 37.528 24.2502 41.4608C22.3969 43.0939 18.5332 47.8599 18.5332 48.4932C18.5332 48.6265 19.5384 48.7265 20.7948 48.6598L23.0565 48.5598L23.8732 46.8934C25.0669 44.3937 29.5274 39.7944 32.1975 38.3279C36.2182 36.1282 38.6684 35.5617 44.6053 35.5617C48.4689 35.595 50.2908 35.7283 51.7358 36.1616C54.7514 36.9948 56.1649 37.8947 56.4476 39.0612L56.6989 40.061L57.9868 39.3945C58.6779 39.0278 60.0914 37.9947 61.128 37.1281C63.3269 35.2284 63.5468 34.2952 62.0076 33.3286C59.9658 32.0622 52.3326 31.1956 47.9035 31.7289Z" fill="#156B6B"/>
<path d="M41.1185 39.0612C37.192 39.5278 33.6424 41.1275 30.6897 43.7272C29.1505 45.0603 27.0145 47.8599 27.0145 48.4932C27.0145 48.6265 32.9514 48.7265 40.239 48.7265H53.4321L53.2436 47.9599C53.118 47.56 52.8353 46.8934 52.584 46.4935L52.1442 45.7269L50.4793 46.4268C47.5266 47.6933 47.3381 47.7599 47.1811 47.5933C47.1182 47.4933 47.7779 46.4268 48.6889 45.227L50.3537 43.0273L49.2857 41.8608C46.7413 39.0612 45.2963 38.5612 41.1185 39.0612Z" fill="#156B6B"/>
<path d="M1.25648 68.2237V75.3894H6.31384C10.7115 75.3894 11.3398 75.3227 11.1827 74.8894C10.6487 73.3563 10.3032 69.5235 10.4288 65.5574L10.5231 61.0581H5.90548H1.25648V68.2237Z" fill="#156B6B"/>
<path d="M13.947 61.458C13.8213 61.6913 13.6957 63.9577 13.6957 66.524C13.6957 72.1232 14.1669 74.4895 16.1773 78.8889C20.3237 87.9543 29.0562 93.4202 40.2076 93.9201C43.82 94.0867 44.354 94.0534 46.9612 93.2202C50.5736 92.087 54.2174 90.2873 57.2644 88.0876C58.5837 87.1544 59.6831 86.3212 59.6831 86.2545C59.6831 86.1879 58.7721 86.4212 57.6727 86.7211C51.3275 88.6209 43.3802 89.0208 38.794 87.7543C33.9251 86.3878 29.2447 83.4882 26.4176 80.1554C24.5957 77.989 22.2398 73.2897 21.4859 70.2234C21.2346 69.1236 20.9205 66.6239 20.8263 64.6242L20.6378 61.0581H17.4023C15.2349 61.0581 14.1041 61.1914 13.947 61.458Z" fill="#156B6B"/>
<path d="M23.9989 63.9577C24.2502 67.6905 24.8784 70.4901 26.0721 73.2563L27.0144 75.456L33.0456 75.3227C38.5113 75.1561 39.3594 75.0561 41.6211 74.2895C45.3277 72.9897 48.3433 70.6567 50.7935 67.2572C52.207 65.2575 53.7148 62.2912 53.7148 61.458C53.7148 61.1581 50.5107 61.0581 38.7626 61.0581H23.779L23.9989 63.9577Z" fill="#156B6B"/>
<path d="M2.98605 54.809V54.589H4.15205C4.48205 54.589 4.78638 54.5413 5.06505 54.446C5.35105 54.3433 5.57838 54.1857 5.74705 53.973C5.91572 53.753 6.00005 53.4707 6.00005 53.126C6.00005 52.6493 5.83505 52.2827 5.50505 52.026C5.18238 51.762 4.73138 51.63 4.15205 51.63H3.06305V58.67H4.26205C4.69472 58.67 5.07238 58.604 5.39505 58.472C5.71772 58.3327 5.96705 58.1237 6.14305 57.845C6.32638 57.559 6.41805 57.1997 6.41805 56.767C6.41805 56.4737 6.35572 56.2133 6.23105 55.986C6.10638 55.7513 5.94138 55.557 5.73605 55.403C5.53072 55.2417 5.29972 55.1207 5.04305 55.04C4.78638 54.952 4.52605 54.908 4.26205 54.908H2.98605V54.699H4.33905C4.61038 54.699 4.88905 54.743 5.17505 54.831C5.46105 54.9117 5.72505 55.04 5.96705 55.216C6.20905 55.3847 6.40338 55.601 6.55005 55.865C6.69672 56.129 6.77005 56.437 6.77005 56.789C6.77005 57.295 6.66372 57.713 6.45105 58.043C6.23838 58.3657 5.94505 58.6077 5.57105 58.769C5.19705 58.923 4.76072 59 4.26205 59H2.71105V51.3H4.15205C4.61405 51.3 5.00638 51.3733 5.32905 51.52C5.65905 51.6593 5.91205 51.861 6.08805 52.125C6.27138 52.389 6.36305 52.7153 6.36305 53.104C6.36305 53.4927 6.26772 53.8153 6.07705 54.072C5.89372 54.3213 5.64072 54.5083 5.31805 54.633C5.00272 54.7503 4.63972 54.809 4.22905 54.809H2.98605ZM8.2957 51.3H8.6587V56.547C8.6587 57.229 8.83103 57.7717 9.1757 58.175C9.5277 58.571 10.0154 58.769 10.6387 58.769C11.2694 58.769 11.757 58.571 12.1017 58.175C12.4537 57.7717 12.6297 57.229 12.6297 56.547V51.3H12.9927V56.547C12.9927 56.9283 12.9414 57.2767 12.8387 57.592C12.736 57.9073 12.5857 58.1787 12.3877 58.406C12.1897 58.626 11.944 58.7983 11.6507 58.923C11.3574 59.0477 11.02 59.11 10.6387 59.11C10.2574 59.11 9.92003 59.0477 9.6267 58.923C9.3407 58.7983 9.09503 58.626 8.8897 58.406C8.6917 58.1787 8.54137 57.9073 8.4387 57.592C8.34337 57.2767 8.2957 56.9283 8.2957 56.547V51.3ZM14.8497 51.3H15.2017V58.659H18.5017V59H14.8497V51.3ZM19.6077 51.3H19.9597V59H19.6077V51.3ZM23.2707 51.3H23.7327L20.3117 54.908L23.8977 59H23.4357L19.8607 54.919L23.2707 51.3ZM28.2439 55.15C28.2439 55.8393 28.3869 56.4553 28.6729 56.998C28.9663 57.5333 29.3623 57.955 29.8609 58.263C30.3596 58.571 30.9243 58.725 31.5549 58.725C31.9216 58.725 32.2516 58.6883 32.5449 58.615C32.8456 58.5417 33.1169 58.4317 33.3589 58.285C33.6009 58.131 33.8246 57.9477 34.0299 57.735V58.219C33.7073 58.505 33.3553 58.725 32.9739 58.879C32.5926 59.0257 32.1196 59.099 31.5549 59.099C31.0196 59.099 30.5246 59.0037 30.0699 58.813C29.6226 58.615 29.2339 58.34 28.9039 57.988C28.5739 57.6287 28.3173 57.2107 28.1339 56.734C27.9506 56.25 27.8589 55.722 27.8589 55.15C27.8589 54.578 27.9506 54.0537 28.1339 53.577C28.3173 53.093 28.5739 52.675 28.9039 52.323C29.2339 51.9637 29.6226 51.6887 30.0699 51.498C30.5246 51.3 31.0196 51.201 31.5549 51.201C32.1196 51.201 32.5926 51.278 32.9739 51.432C33.3553 51.5787 33.7073 51.795 34.0299 52.081V52.554C33.8319 52.3413 33.6046 52.1617 33.3479 52.015C33.0986 51.8683 32.8236 51.7583 32.5229 51.685C32.2296 51.6117 31.9069 51.575 31.5549 51.575C30.9243 51.575 30.3596 51.729 29.8609 52.037C29.3623 52.3377 28.9663 52.7557 28.6729 53.291C28.3869 53.8263 28.2439 54.446 28.2439 55.15ZM36.1851 56.206L36.2841 55.876H39.9471L40.0461 56.206H36.1851ZM38.1101 51.905L36.4491 55.997L36.4161 56.085L35.2391 59H34.8431L38.1101 51.069L41.3771 59H40.9701L39.8151 56.107L39.7821 56.019L38.1101 51.905ZM43.7219 55.425H44.1179L46.6479 59H46.2079L43.7219 55.425ZM42.4679 51.3H42.8309V59H42.4679V51.3ZM42.6329 51.63V51.3H43.9749C44.4736 51.3 44.9172 51.3843 45.3059 51.553C45.6946 51.7143 46.0026 51.9563 46.2299 52.279C46.4646 52.6017 46.5819 53.0013 46.5819 53.478C46.5819 53.9473 46.4646 54.347 46.2299 54.677C46.0026 54.9997 45.6946 55.2453 45.3059 55.414C44.9172 55.5753 44.4736 55.656 43.9749 55.656H42.6329V55.337H43.9749C44.4149 55.337 44.8036 55.2673 45.1409 55.128C45.4782 54.9887 45.7422 54.7833 45.9329 54.512C46.1236 54.2333 46.2189 53.8887 46.2189 53.478C46.2189 53.0673 46.1236 52.7263 45.9329 52.455C45.7422 52.1763 45.4782 51.971 45.1409 51.839C44.8036 51.6997 44.4149 51.63 43.9749 51.63H42.6329ZM48.0792 59V58.659H51.8522V59H48.0792ZM48.0792 51.641V51.3H51.8522V51.641H48.0792ZM48.0792 54.919V54.578H51.6322V54.919H48.0792ZM47.9142 51.3H48.2772V59H47.9142V51.3Z" fill="black"/>
</svg>
